/* XPM */
static char *butt32[] = {
/* columns rows colors chars-per-pixel */
"32 32 3 1 ",
"  c black",
". c #020202",
"X c None",
/* pixels */
"XXXXXXXXXXXXXXXXXXXXXXXXXXXXXXXX",
"XXXXXXXXXXXXXXXXXXXXXXXXXXXXXXXX",
"XXXXXXX                  XXXXXXX",
"XXXXXX                   XXXXXXX",
"XXXXXX        XXX        XXXXXXX",
"XXXXXX       XXXXX       XXXXXXX",
"XXXXXX       XX  XX      XXXXXXX",
"XXXXXX       XX  XX      XXXXXXX",
"XXXXXX       XXXXXX      XXXXXXX",
"XXXXXX        XXXX       XXXXXXX",
"XXXXXX                   XXXXXXX",
"XXXXXX                   XXXXXXX",
"XXXXXX       XXXXX.      XXXXXXX",
"XXXXXX     XXXXXXXXX.    XXXXXXX",
"XXXXXX    XXX     XXX.   XXXXXXX",
"XXXXXX   XXX        XX   XXXXXXX",
"XXXXXX   XX          XX  XXXXXXX",
"XXXXXX  .X           XX  XXXXXXX",
"XXXXXX  XX    .XX    XX  XXXXXXX",
"XXXXXX  XX    XXXX   .X  XXXXXXX",
"XXXXXX  XX    XXX    .X  XXXXXXX",
"XXXXXX  XX           XX  XXXXXXX",
"XXXXXX  .XX          XX  XXXXXXX",
"XXXXXX   XX         XX   XXXXXXX",
"XXXXXX    XXX      XXX   XXXXXXX",
"XXXXXX     XXXXXXXXXX    XXXXXXX",
"XXXXXX      XXXXXXX      XXXXXXX",
"XXXXXX                   XXXXXXX",
"XXXXXXX                  XXXXXXX",
"XXXXXXXXXXXXXXXXXXXXXXXXXXXXXXXX",
"XXXXXXXXXXXXXXXXXXXXXXXXXXXXXXXX",
"XXXXXXXXXXXXXXXXXXXXXXXXXXXXXXXX"
};
